<svg xmlns="http://www.w3.org/2000/svg" viewBox="0 0 120 120">
<!-- SVG created with Arrow, by QuiverAI (https://quiver.ai) -->
  <style type="text/css">.cls-0 {fill:#006F35;}
.cls-1 {fill:#ED7C21;}
.cls-2 {fill:#ED7C22;}</style>
  <path class="cls-0" d="m10.3 3.5c1.1 4.5 2.3 7.4 4.8 9.8 4 4.1 11.6 7.6 16.2 10.3 4.7 2.6 13.6 7 16.6 9.3 2.7 2 2.8 3 3.8 5.6 1.1 2.9 2.2 5.8 4.2 8.2 1.6 2 5 4.8 8 4.8 1.9 0.1 4.7-0.9 4.7-0.9-2.3-0.5-5.5-1.2-8.6-3.9-3-2.4-4.5-6.7-5.9-10.8-1.1-3-3.8-5-6.4-6.5-8.3-4.9-20.3-11-26.1-15-1.9-1.3-3.7-2.7-5.4-4.3-1.5-1.4-3.8-3.5-5.9-6.6z"/>
  <path class="cls-0" d="m7.3 8.5c0.4 2.4 1.2 6.9 3.8 9.4 3.4 3 10.3 6.7 15.6 10.2l0.8 1.3 0.6-0.4c-0.8-1.5-1.6-4-1.6-4-6.6-4.3-14.1-9.1-19.2-16.5z"/>
  <path class="cls-0" d="m6.3 23.1c1 3.5 2.6 6.5 5.8 8.2 4 2.1 7.3 3 10.8 4.6 2.8 1.2 6.5 2.2 10.8 5.7l-5-6c-8-4.2-17.8-8-22.4-12.5z"/>
  <path class="cls-0" d="m28.4 83 21.4-14.4v2.8l-18.1 14.2c-1.1-0.7-2.4-1.5-3.3-2.6z"/>
  <path class="cls-0" d="m34.2 87.1 16.9-14.5-13.2 16.3c-1.2-0.4-2.5-1-3.7-1.5z"/>
  <path class="cls-0" d="m85.1 54.3c4.3-1.7 7.5-1.9 11.3-2.8l3-0.9c1.6-0.9 3.7-3.1 4.8-5-2.6 1.5-10.7 3.5-16.2 5.4l-4.1 3.4 1.2-0.1z"/>
  <path class="cls-0" d="m93.4 43.6 1.5-3.5c4.2-2.7 13-6.5 17.1-11.1-0.9 3.5-2.1 5.7-4.6 7.1-2.8 1.8-10.7 5-14 7.5z"/>
  <path class="cls-0" d="m78.8 38.6c1.9 0.4 2.3 0.8 2.9 1.8 2-3.8 7.7-6.4 11.7-8.8 4-2.5 10-6 12.2-8 3.3-2.9 4.6-5.5 5.5-11.9-1.4 2.2-2.7 3.9-4.7 5.9-3.5 3.4-5.5 4.8-10.8 8-4 2.5-8 4.8-11.7 7.3-2 1.4-4.2 3.6-5.1 5.7z"/>
  <path class="cls-0" d="m81.1 42.1c-0.5-1-2.5-2-6.2-1.7-6.2 0.5-8.4 4-13.3 5.2 1.1 0.8 2.1 1.8 3.3 2.1 3.8-1.7 6.2-4.1 10.8-4.5 2.2-0.1 2.9 0.5 3.3 1.4-0.5 0.8-5.5 3.4-5.5 10.8v7l-0.3 0.6-9.5 10.5-0.5 0.6c0 1 0.4 2.9 0.8 3.5l3.5-3.9c1.1 1.7 2.4 5.3 5.4 7.8-0.8 0.2-1.8 1.2-1.9 1.9 0.7 0 1.4 0.5 1.7 1.1 1.2-1 3.4-1.9 5.9-1.8 1.5 0 2.5 0.7 2.9 2 1-2.6-0.4-4.7-3.5-4.3l-1.6 0.1c-2.3-0.5-5-4.9-6.5-9.1l6.8-7.9v-7.6c0-3 0.7-5.3 2.4-7.3 1-0.9 4.9-4.1 6.9-1 0.1-0.2 0.4-1 0.3-2.6-0.4-2.4-2.9-2.9-5.2-2.9z"/>
  <path class="cls-0" d="m56.2 72.9-9.1 17c1.6 0 3.3-0.3 4.8-0.7l4.1-10.7c0.6 1.6 3 4.1 4.1 5.2l0.5-2.2 2.9 3.6c-3.5 1-3.1 4-1.4 5.3-0.4-2.3 1.8-3.3 5.9-3.5 3.1-0.2 3.7 1.5 3.6 2.5 1.5-1.8 0.5-5-3-4.9-1 0.1-2-0.1-2.5-0.8-1.5-1.6-2.9-3.7-3.6-5.6l-0.8 2.4c-1.8-1.6-4.8-2.9-5.5-7.6z"/>
  <path class="cls-2" d="m5.4 13.9c0.2 4.5 2 7.5 4 8.7 2.7 2 6.8 3.9 10 5.5l11.1 6.4 1 2.6 3.6 2.5 0.3-1.1-3.4-3-0.5-1.5-16.4-9.9c-3.7-2.5-7.2-5.4-9.7-10.2z"/>
  <path class="cls-2" d="m9.7 33.2c0.4 0.9 1.7 3.2 2.5 3.5l16.5 4.9 1.7 2.5 1.7 0.9-0.5-0.5-2.2-3.8-14.7-5.2s-3.8-1.6-5-2.3z"/>
  <path class="cls-2" d="m13.6 40.4c1.5 2.2 5.4 7 6.4 7.6l12.7 1 2 1.9 10.7 0.1-0.3-1.1h-9.7l-2.2-1.9-12.6-1.5c-0.6-0.1-2.6-2.5-2.6-2.9l18.1 2.4v-0.9l-4.2-0.7-13.4-2.5-4.9-1.2z"/>
  <path class="cls-2" d="m29.9 53.2c-0.2-0.8-0.9-1.3-1.8-1.3-1 0-2 0.8-2 1.8 0 1.2 0.9 1.9 1.9 1.8 0.9 0 1.6-0.6 1.7-1.2l14.2 0.1 9.3 8.6c0.3 1.4 1 1.9 2 1.7 0.9 0 1.3-0.6 1.5-1.2h1.8l4.5-4.9c0.2-0.2 0.2-0.7-0.1-1l-6-6.1c0.5-1-0.8-2.5-1.8-1.9l-6.1-7.2-0.6-2.3h-1.3l0.6 2.9 6.4 6.9c-0.2 0.2-0.4 0.7-0.4 0.8h-1.6l-7.5-8-2.4-0.2v-5.5l-14.2-8-1.5-0.1 1.2 1.5 13.4 7.3v5.8l3 0.4 7.4 7.8h2.1c0.3 1.2 2.1 2 2.9 0.9l5.2 5.4-3.6 4.4h-1.6c-0.4-1.3-2.1-1.9-3-0.7l-9.1-8.5h-14.5zm-1.8 1.3c-0.5 0-1-0.4-1-0.8 0-0.5 0.4-0.8 0.9-0.8s1 0.5 1 0.8c0 0.4-0.4 0.8-0.9 0.8zm27.1 9.2c-0.5 0-1.1-0.1-1.1-0.7 0-0.5 0.5-0.9 1-0.8 0.3 0 0.5 0.4 0.5 0.8s-0.1 0.7-0.4 0.7zm0-13.3c0.5 0 0.9 0.2 0.9 0.7s-0.4 0.9-0.7 0.9c-0.4 0-0.9-0.4-0.9-0.8 0-0.5 0.4-0.8 0.7-0.8z"/>
  <path class="cls-2" d="m32.6 27.6c0.1-1-0.9-2.2-2.1-2.2-0.9 0.1-1.6 0.8-1.6 1.8 0 1.8 2 2.4 3 1.4l10.6 5.9c-0.4 2.2 2.6 2.9 3.5 1.1 0.6-1.5-1.3-3.5-3-1.9l-10.5-6.1zm-1.9 0.5c-0.5 0-0.8-0.2-0.8-0.7s0.3-0.9 0.8-0.9 0.9 0.5 0.9 0.9c-0.1 0.3-0.5 0.7-0.9 0.7zm13.5 6.1c1.2-0.2 1.3 1.5 0.2 1.5-1 0-1.2-1.2-0.2-1.5z"/>
  <path class="cls-2" d="m36.5 37.9c-0.5 0.1-0.6 0.2-0.9 0.5l0.1 0.7c-1.3 2.5 2.3 4 3 1.5 0.4-1.5-0.7-2.7-2.2-2.7zm0.2 3.1c-1.1-0.3-0.8-2 0.4-1.9 1.1 0.4 0.6 2-0.4 1.9z"/>
  <path class="cls-2" d="m39.9 45.7c-0.8-2.7-3.5-2.1-3.9-0.1 0 0.9 0.6 2 1.7 2.1 0.8 0 1.5-0.2 1.8-0.8l3.2 0.2 1.8 2.8h1.1l-2.2-4-3.5-0.2zm-2.2 0.9c-0.8 0-1.1-1.2-0.2-1.6 1.2-0.3 1.6 1.5 0.2 1.6z"/>
  <path class="cls-2" d="m47.1 36.4c-2 0.2-2.5 3.2 0 4l1.1-0.4c2.4-1.5 0.4-3.9-1.1-3.6zm0.1 2.8c-1.1-0.1-1.1-1.6-0.1-1.8 1.1 0 1.5 1.6 0.1 1.8z"/>
  <path class="cls-2" d="m45.1 58.2c0-1-0.9-1.8-1.7-1.8-0.9 0-1.7 0.5-1.9 1.3h-8.9c1.8 1.2 4.9 2.9 6.9 3.2s5.9 0.3 7.5 0.3l4.2 3.8-0.1 8.1 4.6-5.4 3.5-0.6 6.7-7.1v-3.5l-0.8-0.1-0.2 3-6.3 6.7-3.5 0.6-2.7 3.2v-5.5l-7.3-6.2zm-1.9-0.8c1.2 0 1.3 1.5 0.2 1.6-0.8 0-1.5-1.3-0.2-1.6z"/>
  <path class="cls-2" d="m45 86.5 2.7-3.9c1.9 0.9 3.7-1.5 2.2-3l6.7-9 2-0.2v3l1.5 2.1c1.3 0.1 0.5 1.6-0.1 1.6l0.1 0.6c1.1-0.5 1.5 1.3 1.6 2.2l0.7-1.8-0.9-3.1-0.6-0.4-1.2-1.6v-2.6l9.2-9.8v-4.4h-1.2v3.9l-8.2 9-3.5 0.4-7.4 9.5c-1.4-0.5-2.7 1.1-1.7 2.7l-2.9 4.2c-1.1 0-2.4 0.6-2.1 2.5l-1.2 1.2 1.4 0.3 0.5-0.4c1.9 1.1 4-1.1 2.4-3zm3.4-6.5c1.3-0.1 1.5 1.5 0.1 1.7-1.3 0-1.3-1.6-0.1-1.7zm-4.8 7c1.1 0 1.1 1.7 0 1.7s-1.1-1.6 0-1.7z"/>
  <path class="cls-2" d="m54.6 56.5h-2.4l-6.7-6.8-1.3 0.4 7.7 7.4h2.6c0.6 1.9 3.5 1.6 3.6-0.4 0-1.7-2.5-3.1-3.5-0.6zm1.8 1.4c-1.3 0-1.3-1.5-0.2-1.7 1.2 0 1.3 1.5 0.2 1.7z"/>
  <path class="cls-2" d="m65.4 53c-2.2 0.5-2.5 3.1-0.5 3.6l1-0.1c2-0.4 1.8-3.5-0.5-3.5zm0.1 2.6c-1.3 0-1.1-1.7 0-1.6 1 0 1.1 1.6 0 1.6z"/>
  <path class="cls-2" d="m71.6 53.4c2.1-0.7 1.8-3.7-0.7-3.5-1.8 0.2-2.3 3.1-0.3 3.6v7.9l-6.4 6.8c-2.5-0.7-3.7 2.9-1.1 3.4 1.5 0.1 2.8-1.4 1.9-2.9l6.7-6.8-0.1-8.5zm-0.5-0.9c-1.4 0-1.1-1.8 0.1-1.6 1 0.3 0.9 1.6-0.1 1.6zm-7.6 18.1c-1.4-0.2-0.9-1.7 0.2-1.6 1.2 0.4 0.8 1.6-0.2 1.6z"/>
  <path class="cls-2" d="m86.1 41.4 3-2.8-0.1-1.2-5.1 3.2h0.6l1.6 0.8z"/>
  <path class="cls-2" d="m87.1 42.2v0.3l0.3 0.7 2.2-2.1-1.2-0.1-1.8 1.1z"/>
  <path class="cls-2" d="m87.9 45.5v1.2l3.6-1.6 1.2-5.1 6.9-4.1 0.4-1.4s9-5 10.5-6.4c1.5-1.6 2.7-6.1 2.7-10.5-2.6 5-7.6 8-10.1 9.9l-6.9 4.7-0.7 1.2 10.4-6.3c1.5-1 4-2.7 4.8-3.4-0.1 0.9-1 3-1.3 3.3l-10.5 6.9-0.5 1.2-6.8 3.9-1 5.1-2.7 1.4z"/>
  <path class="cls-2" d="m92.1 36.1c-1.7-2-4.5-0.4-3.6 1.8l1.1 0.7c1.1 0.9 3.1-0.2 2.4-2.2l1.9-1.3 0.6-0.1c2.1 1.1 3.5-1.1 2.1-2.5l-0.7-0.6c-1.8-0.5-2.9 0.8-2.4 2.2l-2.1 1.4 0.7 0.6zm2.8-3.2c1.3-0.2 1.3 1.7 0.1 1.6-0.9-0.1-1-1.3-0.1-1.6zm-5 3.1c1.3-0.4 1.6 1.5 0.3 1.7-0.8-0.1-1.2-1.3-0.3-1.7z"/>
  <path class="cls-2" d="m83.1 50.6c-1.5-1-3.7 0.4-2.9 2l-1.6 1.1v1.5l2.4-1.6c1.1 0.8 3-0.1 2.6-1.7l10.4-4.3 0.5-0.4 0.1-0.7v-0.5l10.9-3.6c1.1-0.5 3-3.7 3.1-4.3-3.2 2-6.5 3.3-14.5 6.9l-0.7 1.5-10.3 4.1zm-1.5 0.6c1.3 0 1.8 1.4 0.3 1.8-1.2-0.1-1.3-1.6-0.3-1.8z"/>
  <path class="cls-2" d="m78.6 57.6v1.3l2.6-1.8 8-0.9 0.8-1.1-9.1 1-2.3 1.5z"/>
  <path class="cls-2" d="m78.6 60.5v1.2l1.1-0.6c1.4-0.5 5.2-0.5 6.9-1.2 0.9-0.3 3-1.7 3-1.9l-8 0.7-3 1.8z"/>
  <path class="cls-2" d="m90.9 53.5c-0.7 0.2-1.8 0.9-1.7 2.1l0.7 0.6c1.1 2.2 3.8 0.9 3-1.7-0.4-0.8-1.2-1.1-2-1zm0.1 2.7c-1-0.1-1-1.6 0-1.7 1.1 0.1 1.2 1.7 0 1.7z"/>
</svg>